:SAMPLES-PER-SECOND 30
:FULLY-SPECIFIED
:DEGREES
277
root  -15.6168 34.7167 -8.71401 -168.427 1.41986 179.717
RightUpLeg  -11.3303 -8.13102 1.36691
RightLeg  7.01337 1.38225 0.0815362
RightFoot  2.80699 0.00711277 0.206045
RightToes  -24.6569 -0.117047 -0.223303
Spine  -2.0586 0.44406 -0.314457
Spine1  -4.18723 0.984515 -6.94714e-005
HEad  -63.0646 -2.91412 5.60485
LeftShoulder1  -1.94126e-019 -3.10601e-018 -2.51263e-017
LeftArm  -10.5667 25.1431 -81.8555
LeftForeArm  29.8298 -19.8241 -3.26243
LeftHand  -0.470549 -2.17465 7.42156
RightShoulder  -4.96962e-017 0 -2.36833e-017
RightArm  -23.8853 -22.2812 79.2472
RightForeArm  54.4109 14.2595 1.2457
RightHand  -0.493642 -0.683399 -12.1573
LeftUpLeg  -9.94094 -5.51257 -1.46279
LeftLeg  5.83863 13.8334 0.515123
LeftFoot  2.08735 0.0124162 0.665769
LeftToes  -13.7649 1.31424e-006 1.14295e-007
278
root  -15.628 34.7183 -8.69066 -167.746 1.44511 179.745
RightUpLeg  -12.0574 -8.05802 1.47233
RightLeg  7.01261 1.35893 0.0790263
RightFoot  2.84155 0.00773466 0.207416
RightToes  -24.6214 -0.116035 -0.222113
Spine  -1.99024 0.449043 -0.32967
Spine1  -4.04858 0.994505 -0.0302125
HEad  -62.9868 -3.14205 5.5954
LeftShoulder1  -1.94126e-019 -3.10601e-018 -2.51263e-017
LeftArm  -10.8612 25.0643 -81.776
LeftForeArm  29.6787 -20.1352 -3.30194
LeftHand  -0.486639 -2.25045 7.59785
RightShoulder  -4.96962e-017 0 -2.36833e-017
RightArm  -23.5746 -22.3462 79.2663
RightForeArm  53.7763 14.6897 1.20483
RightHand  -0.485776 -0.731165 -12.0813
LeftUpLeg  -10.717 -5.56533 -1.3817
LeftLeg  5.95883 13.8985 0.546399
LeftFoot  2.0444 0.0116715 0.657488
LeftToes  -13.5906 1.31424e-006 1.14295e-007
279
root  -15.6377 34.7231 -8.65516 -167.052 1.4893 179.771
RightUpLeg  -12.7683 -7.97444 1.58208
RightLeg  6.90554 1.34422 0.0767827
RightFoot  2.95571 0.00840915 0.208774
RightToes  -24.6006 -0.114862 -0.220707
Spine  -1.86974 0.453474 -0.343892
Spine1  -3.80524 1.00236 -0.0580117
HEad  -62.7691 -3.30734 5.55478
LeftShoulder1  -1.94126e-019 -3.10601e-018 -2.51263e-017
LeftArm  -11.2 25.0303 -81.6964
LeftForeArm  29.2445 -20.7563 -3.38464
LeftHand  -0.48605 -2.15106 7.68168
RightShoulder  -4.96962e-017 0 -2.36833e-017
RightArm  -23.1924 -22.2907 79.2704
RightForeArm  53.2046 15.0384 1.17884
RightHand  -0.482341 -0.753249 -12.0507
LeftUpLeg  -11.4713 -5.55285 -1.30192
LeftLeg  5.95975 13.9114 0.54712
LeftFoot  2.10031 0.00930624 0.671628
LeftToes  -13.5749 1.31424e-006 1.14295e-007
280
root  -15.6466 34.7293 -8.59277 -166.208 1.50061 179.799
RightUpLeg  -13.6516 -7.9965 1.73392
RightLeg  6.75213 1.40619 0.076492
RightFoot  3.12957 0.00918545 0.209437
RightToes  -24.5936 -0.113523 -0.219077
Spine  -1.74866 0.448964 -0.3505
Spine1  -3.55988 0.992881 -0.0694176
HEad  -62.2687 -3.42939 5.51042
LeftShoulder1  -1.94126e-019 -3.10601e-018 -2.51263e-017
LeftArm  -11.2985 25.0883 -81.6056
LeftForeArm  28.5421 -21.6247 -3.5019
LeftHand  -0.475168 -1.97711 7.69509
RightShoulder  -4.96962e-017 0 -2.36833e-017
RightArm  -22.7311 -22.2352 79.2513
RightForeArm  52.735 15.403 1.15708
RightHand  -0.480108 -0.735372 -11.9505
LeftUpLeg  -12.4081 -5.64609 -1.18501
LeftLeg  5.92454 13.9915 0.541688
LeftFoot  2.23242 0.00535656 0.70753
LeftToes  -13.526 1.31424e-006 1.14295e-007
281
root  -15.6582 34.7349 -8.49769 -165.148 1.5152 179.8
RightUpLeg  -14.8444 -7.94972 1.88656
RightLeg  6.6769 1.41978 0.0753488
RightFoot  3.31001 0.0101127 0.208723
RightToes  -24.5281 -0.11201 -0.217214
Spine  -1.62665 0.440921 -0.35115
Spine1  -3.31284 0.977115 -0.0692459
HEad  -61.571 -3.4428 5.45398
LeftShoulder1  -1.94126e-019 -3.10601e-018 -2.51263e-017
LeftArm  -11.54 25.1576 -81.5788
LeftForeArm  28.1583 -22.3967 -3.59258
LeftHand  -0.469077 -1.95292 7.60584
RightShoulder  -4.96962e-017 0 -2.36833e-017
RightArm  -22.5245 -22.1636 79.2396
RightForeArm  52.2982 15.7486 1.14604
RightHand  -0.484682 -0.700328 -11.9778
LeftUpLeg  -13.6085 -5.955 -1.04588
LeftLeg  5.865 14.2896 0.538302
LeftFoot  2.44983 -0.000827032 0.77519
LeftToes  -13.4018 1.31424e-006 1.14295e-007
282
root  -15.6672 34.7453 -8.34563 -163.593 1.56592 179.802
RightUpLeg  -16.6216 -7.64976 2.09052
RightLeg  6.57848 1.23098 0.0633509
RightFoot  3.59928 0.0113067 0.204999
RightToes  -24.3369 -0.110317 -0.215106
Spine  -1.54325 0.467083 -0.34334
Spine1  -3.14 1.02842 -0.0499019
HEad  -60.8601 -3.51958 5.33708
LeftShoulder1  -1.94126e-019 -3.10601e-018 -2.51263e-017
LeftArm  -11.884 25.1429 -81.6114
LeftForeArm  27.936 -23.1583 -3.69122
LeftHand  -0.475484 -2.02143 7.64096
RightShoulder  -4.96962e-017 0 -2.36833e-017
RightArm  -22.7406 -22.0548 79.2237
RightForeArm  51.5522 16.0211 1.15781
RightHand  -0.469521 -0.883517 -12.0556
LeftUpLeg  -15.3764 -6.09255 -0.85225
LeftLeg  5.7562 14.4565 0.517285
LeftFoot  2.80215 -0.00918716 0.873617
LeftToes  -13.5064 1.31424e-006 1.14295e-007
283
root  -15.6783 34.7561 -8.16972 -162.076 1.64844 179.746
RightUpLeg  -18.2666 -7.9964 2.33374
RightLeg  6.17523 1.7414 0.07687
RightFoot  4.02269 0.00937413 0.246768
RightToes  -24.315 -0.10844 -0.212747
Spine  -1.33385 0.534928 -0.361987
Spine1  -2.71471 1.1589 -0.0821116
HEad  -60.2105 -3.63541 5.38722
LeftShoulder1  -1.94126e-019 -3.10601e-018 -2.51263e-017
LeftArm  -12.5563 24.9847 -81.6766
LeftForeArm  27.7584 -23.8534 -3.79198
LeftHand  -0.474584 -1.89264 7.75211
RightShoulder  -4.96962e-017 0 -2.36833e-017
RightArm  -23.4723 -21.9279 79.2877
RightForeArm  50.7018 16.261 1.18348
RightHand  -0.465696 -0.967363 -12.1752
LeftUpLeg  -17.0348 -6.2291 -0.710158
LeftLeg  5.42573 14.6325 0.439929
LeftFoot  3.26689 -0.0197994 1.00389
LeftToes  -13.4851 1.31424e-006 1.14295e-007
284
root  -15.6866 34.7796 -7.90748 -159.95 1.76045 179.824
RightUpLeg  -20.8574 -7.40142 2.65367
RightLeg  6.18607 1.3726 0.0610755
RightFoot  4.50257 0.0113184 0.233986
RightToes  -24.1182 -0.10637 -0.210124
Spine  -1.21601 0.664349 -0.351715
Spine1  -2.47045 1.41315 -0.0560641
HEad  -59.5494 -3.80619 5.34766
LeftShoulder1  -1.94126e-019 -3.10601e-018 -2.51263e-017
LeftArm  -13.0741 24.9238 -81.7313
LeftForeArm  27.1298 -24.8075 -3.95609
LeftHand  -0.443057 -1.47449 7.65783
RightShoulder  -4.96962e-017 0 -2.36833e-017
RightArm  -23.9618 -21.98 79.3046
RightForeArm  49.4871 16.5579 1.23572
RightHand  -0.446292 -1.17894 -12.2296
LeftUpLeg  -19.46 -6.30893 -0.342021
LeftLeg  5.12101 14.8055 0.367142
LeftFoot  3.84525 -0.0327255 1.16687
LeftToes  -13.3338 1.31424e-006 1.14295e-007
285
root  -15.6976 34.8029 -7.59607 -157.608 1.76216 179.808
RightUpLeg  -23.5928 -7.45396 3.05578
RightLeg  5.86004 1.55201 0.0600549
RightFoot  5.2034 0.0105836 0.265332
RightToes  -23.8758 -0.104102 -0.207231
Spine  -1.01488 0.749383 -0.361149
Spine1  -2.06054 1.57729 -0.066426
HEad  -58.9649 -3.87441 5.3006
LeftShoulder1  -1.94126e-019 -3.10601e-018 -2.51263e-017
LeftArm  -13.6511 24.7949 -81.751
LeftForeArm  26.8457 -25.569 -4.08446
LeftHand  -0.435826 -1.46487 7.54519
RightShoulder  -4.96962e-017 0 -2.36833e-017
RightArm  -23.94 -21.9159 79.2887
RightForeArm  48.6015 16.8864 1.29781
RightHand  -0.441572 -1.28089 -12.3889
LeftUpLeg  -22.2387 -6.43949 -0.00399659
LeftLeg  4.88419 14.9139 0.308828
LeftFoot  4.6103 -0.0489751 1.37816
LeftToes  -13.1331 1.31424e-006 1.14295e-007
286
root  -15.7152 34.8258 -7.20917 -154.878 1.56697 179.746
RightUpLeg  -26.921 -7.69634 3.5856
RightLeg  5.69762 1.80197 0.0644351
RightFoot  5.89187 0.00965858 0.307525
RightToes  -23.0715 -0.0992345 -0.201047
Spine  -0.757969 0.761687 -0.345844
Spine1  -1.53948 1.5981 -0.0273832
HEad  -58.491 -3.78373 5.24505
LeftShoulder1  -1.94126e-019 -3.10601e-018 -2.51263e-017
LeftArm  -14.0077 24.5407 -81.797
LeftForeArm  26.6125 -26.2403 -4.20862
LeftHand  -0.432633 -1.48387 7.69049
RightShoulder  -4.96962e-017 0 -2.36833e-017
RightArm  -23.9736 -21.6953 79.2469
RightForeArm  48.3494 17.2705 1.36648
RightHand  -0.446489 -1.25639 -12.4563
LeftUpLeg  -25.6504 -6.50503 0.341
LeftLeg  4.83818 14.7673 0.294127
LeftFoot  5.47735 -0.0685113 1.59372
LeftToes  -12.4647 1.31424e-006 1.14295e-007
287
root  -15.7307 34.8441 -6.76449 -152.078 1.2449 179.646
RightUpLeg  -30.4335 -7.69029 4.05075
RightLeg  5.60878 1.70082 0.0582286
RightFoot  6.63271 0.0111504 0.319239
RightToes  -22.1908 -0.0940054 -0.194199
Spine  -0.356765 0.774869 -0.323053
Spine1  -0.729927 1.61831 0.0299962
HEad  -58.1635 -3.72687 5.28619
LeftShoulder1  -1.94126e-019 -3.10601e-018 -2.51263e-017
LeftArm  -13.8482 24.0223 -81.7811
LeftForeArm  26.2061 -26.9189 -4.3588
LeftHand  -0.439393 -1.52842 7.56873
RightShoulder  -4.96962e-017 0 -2.36833e-017
RightArm  -23.8878 -21.4419 79.2206
RightForeArm  47.5854 17.8074 1.49496
RightHand  -0.437959 -1.37764 -12.5729
LeftUpLeg  -29.3223 -6.88014 0.823751
LeftLeg  4.93164 14.8125 0.318899
LeftFoot  6.38907 -0.0936176 1.83879
LeftToes  -12.0137 1.31424e-006 1.14295e-007
